<?xml version="1.0" standalone="no"?>
<!DOCTYPE svg PUBLIC "-//W3C//DTD SVG 20010904//EN"
 "http://www.w3.org/TR/2001/REC-SVG-20010904/DTD/svg10.dtd">
<svg version="1.0" xmlns="http://www.w3.org/2000/svg"
 width="512.000000pt" height="512.000000pt" viewBox="0 0 512.000000 512.000000"
 preserveAspectRatio="xMidYMid meet">
<metadata>
Created by potrace 1.14, written by Peter Selinger 2001-2017
</metadata>
<g transform="translate(0.000000,512.000000) scale(0.100000,-0.100000)"
fill="#000000" stroke="none">
<path d="M76 4053 c-3 -4 -6 -16 -6 -28 0 -17 97 -244 213 -498 15 -32 27 -60
27 -62 0 -2 13 -32 29 -67 37 -81 55 -122 158 -353 47 -104 96 -214 109 -243
13 -29 24 -55 24 -57 0 -2 16 -37 35 -76 19 -40 35 -76 35 -80 0 -3 23 -55 50
-113 27 -58 50 -108 50 -110 0 -3 13 -33 29 -68 16 -35 38 -84 50 -110 12 -27
31 -69 42 -95 12 -27 30 -66 39 -88 26 -61 73 -165 119 -268 59 -128 76 -168
106 -236 52 -119 86 -190 93 -195 12 -7 36 17 54 54 17 35 60 130 63 140 4 12
52 120 95 215 10 22 36 81 58 130 22 50 53 119 69 155 79 174 82 147 -48 427
-16 34 -29 64 -29 67 0 3 -15 38 -34 78 -65 142 -86 189 -112 251 -15 34 -41
94 -59 133 -19 40 -48 105 -65 145 -18 41 -44 99 -57 129 -14 30 -50 111 -80
180 -30 69 -70 157 -87 195 -18 39 -63 141 -102 229 -73 168 -102 209 -156
220 -41 8 -703 7 -712 -1z"/>
<path d="M2708 4042 c-30 -18 -40 -36 -123 -227 -29 -66 -61 -140 -73 -165
-11 -25 -74 -166 -140 -315 -66 -148 -132 -297 -147 -330 -15 -33 -33 -73 -40
-90 -8 -16 -32 -70 -54 -118 -23 -49 -41 -91 -41 -94 0 -2 -12 -30 -26 -61
-15 -31 -51 -113 -81 -182 -30 -69 -66 -150 -81 -180 -14 -30 -26 -57 -27 -60
0 -3 -9 -23 -19 -45 -10 -22 -22 -49 -27 -60 -4 -11 -29 -64 -54 -118 -25 -54
-45 -100 -45 -103 0 -3 -10 -26 -21 -52 -12 -26 -35 -76 -51 -112 -16 -36 -36
-78 -43 -95 -7 -16 -24 -55 -38 -85 -13 -30 -50 -113 -81 -185 -32 -71 -68
-152 -81 -180 -51 -106 -60 -144 -39 -159 10 -8 124 -11 364 -11 414 0 382 -9
447 136 23 52 54 121 68 154 15 33 37 83 50 110 12 28 44 100 70 160 26 61 51
115 55 120 3 6 24 51 45 100 43 103 62 146 116 263 22 46 39 86 39 88 0 2 13
33 30 68 29 63 58 132 60 141 1 2 17 36 36 75 19 39 34 72 34 75 0 2 18 43 40
90 22 47 40 88 40 91 0 2 16 39 36 81 40 87 47 103 100 223 20 47 49 112 64
145 15 33 53 119 85 190 31 72 66 150 77 174 119 263 228 517 228 531 0 11
-10 20 -25 24 -14 4 -177 6 -363 6 -297 -1 -340 -3 -364 -18z"/>
<path d="M3668 4049 c-21 -8 -37 -32 -73 -107 -26 -53 -50 -106 -55 -117 -5
-11 -25 -55 -44 -98 -20 -44 -36 -81 -36 -83 0 -2 -13 -32 -29 -66 -81 -178
-93 -212 -84 -227 9 -14 98 -16 814 -17 442 0 819 3 836 8 18 5 38 18 44 31 9
15 12 113 12 336 l0 314 -23 19 c-21 17 -56 18 -679 17 -404 0 -666 -4 -683
-10z"/>
<path d="M3166 2889 c-50 -14 -49 -12 -165 -274 -43 -99 -90 -205 -104 -235
-37 -81 -67 -159 -67 -175 0 -7 10 -17 21 -20 23 -8 2122 -8 2154 -1 11 2 23
5 27 5 16 2 21 89 20 336 0 341 0 328 -16 351 -14 19 -36 19 -928 20 -502 0
-926 -3 -942 -7z"/>
<path d="M2759 1740 c-94 -8 -89 13 -89 -354 1 -328 4 -355 40 -365 31 -9
2276 -7 2303 2 17 6 30 19 33 34 4 14 7 162 7 329 1 339 1 337 -70 350 -40 8
-2142 11 -2224 4z"/>
</g>
</svg>
